<svg height="480pt" viewBox="0 -8 480 480" width="480pt" xmlns="http://www.w3.org/2000/svg" xmlns:xlink="http://www.w3.org/1999/xlink"><linearGradient id="a" gradientUnits="userSpaceOnUse" x1="240" x2="240" y1="466.2" y2="-58.448"><stop offset="0" stop-color="#1d2133"/><stop offset=".357" stop-color="#1d2133"/><stop offset=".703" stop-color="#1d2133"/><stop offset="1" stop-color="#1d2133"/></linearGradient><path d="m472 192h-57.320312l-26.015626-143.199219c-3.492187-19.003906-20.0625-32.800781-39.382812-32.800781h-29.28125c0-8.835938-7.164062-16-16-16h-128c-8.835938 0-16 7.164062-16 16h-29.28125c-19.320312 0-35.890625 13.796875-39.390625 32.800781l-26.007813 143.199219h-57.320312c-4.417969 0-8 3.582031-8 8s3.582031 8 8 8h24.9375l25.871094 206.945312c3.535156 28.015626 27.351562 49.03125 55.589844 49.054688h251.203124c28.226563-.035156 52.03125-21.046875 55.566407-49.054688l25.894531-206.945312h24.9375c4.417969 0 8-3.582031 8-8s-3.582031-8-8-8zm-296-176h128v16h-128zm-68.9375 35.695312c2.105469-11.410156 12.054688-19.695312 23.65625-19.695312h29.28125c0 8.835938 7.164062 16 16 16h128c8.835938 0 16-7.164062 16-16h29.28125c11.59375-.003906 21.539062 8.269531 23.648438 19.671875l25.46875 140.328125h-316.796876zm303.875 316.304688h-101.425781l5-80h106.398437zm-117.449219 0h-106.976562l-5-80h116.976562zm-1 16-4 64h-96.976562l-4-64zm-233.425781-96h106.402344l5 80h-101.402344zm121.449219-16-4-64h126.976562l-4 64zm-20-64 4 64h-107.449219l-8-64zm-85.832031 204.960938-3.617188-28.960938h100.425781l4 64h-61.089843c-20.171876-.015625-37.1875-15.027344-39.71875-35.039062zm330.640624 0c-2.53125 20.011718-19.546874 35.023437-39.71875 35.039062h-61.089843l4-64h100.425781zm17.617188-140.960938h-107.425781l4-64h111.425781zm0 0" fill="url(#a)"/></svg>